<svg xmlns="http://www.w3.org/2000/svg" height="511pt" version="1.1" viewBox="-64 1 511 511.99999" width="511pt">
<g id="surface1">
<path d="M 225.523438 448 L 135.449219 448 C 128.972656 448 123.722656 453.25 123.722656 459.726562 L 123.722656 502 L 237.25 502 L 237.25 459.726562 C 237.25 453.25 232 448 225.523438 448 Z M 225.523438 448 " style=" stroke:none;fill-rule:nonzero;fill:rgb(100%,72.54902%,32.941176%);fill-opacity:1;" />
<path d="M 188.230469 179.523438 L 188.230469 41.046875 C 188.230469 23.898438 174.332031 10 157.1875 10 C 140.039062 10 126.140625 23.898438 126.140625 41.046875 L 126.140625 274.378906 C 126.140625 281.359375 117.390625 284.488281 112.964844 279.089844 L 66.367188 222.292969 C 56.007812 209.660156 37.707031 207.050781 24.222656 216.277344 C 11.601562 224.917969 7.011719 241.378906 13.339844 255.304688 L 49.582031 335.035156 C 65.238281 369.476562 89.941406 399.027344 121.058594 420.542969 L 138.433594 432.558594 L 138.433594 448 L 209.546875 448 L 209.546875 445.0625 L 247.789062 406.609375 C 271.78125 382.480469 285.246094 349.839844 285.246094 315.816406 L 285.246094 179.523438 Z M 188.230469 179.523438 " style=" stroke:none;fill-rule:nonzero;fill:rgb(98.823529%,77.647059%,61.568627%);fill-opacity:1;" />
<path d="M 219.167969 252.457031 C 202.023438 252.457031 188.121094 238.558594 188.121094 221.414062 L 188.121094 182.226562 C 188.121094 165.078125 202.023438 151.179688 219.167969 151.179688 C 236.3125 151.179688 250.210938 165.078125 250.210938 182.226562 L 250.210938 221.414062 C 250.210938 238.558594 236.3125 252.457031 219.167969 252.457031 Z M 219.167969 252.457031 " style=" stroke:none;fill-rule:nonzero;fill:rgb(98.823529%,77.647059%,61.568627%);fill-opacity:1;" />
<path d="M 281.148438 252.457031 C 264.003906 252.457031 250.105469 238.558594 250.105469 221.414062 L 250.105469 182.226562 C 250.105469 165.078125 264.003906 151.179688 281.148438 151.179688 C 298.296875 151.179688 312.195312 165.078125 312.195312 182.226562 L 312.195312 221.414062 C 312.195312 238.558594 298.292969 252.457031 281.148438 252.457031 Z M 281.148438 252.457031 " style=" stroke:none;fill-rule:nonzero;fill:rgb(98.823529%,77.647059%,61.568627%);fill-opacity:1;" />
<path d="M 374.175781 185.503906 C 379.699219 185.503906 384.175781 181.027344 384.175781 175.503906 L 384.175781 95.042969 C 384.175781 72.410156 365.761719 53.996094 343.128906 53.996094 C 320.496094 53.996094 302.085938 72.410156 302.085938 95.042969 L 302.085938 146.941406 C 295.949219 143.289062 288.792969 141.179688 281.148438 141.179688 C 268.785156 141.179688 257.6875 146.683594 250.15625 155.359375 C 242.625 146.683594 231.53125 141.179688 219.167969 141.179688 C 211.523438 141.179688 204.367188 143.285156 198.230469 146.941406 L 198.230469 41.046875 C 198.230469 18.414062 179.820312 0 157.1875 0 C 134.554688 0 116.140625 18.414062 116.140625 41.046875 L 116.140625 267.199219 L 74.097656 215.949219 C 60.34375 199.179688 36.472656 195.773438 18.578125 208.023438 C 1.910156 219.433594 -4.117188 241.054688 4.238281 259.441406 L 40.480469 339.175781 C 56.878906 375.25 82.777344 406.230469 115.371094 428.769531 L 128.433594 437.800781 L 128.433594 439.167969 C 119.886719 442.09375 113.722656 450.199219 113.722656 459.726562 L 113.722656 502 C 113.722656 507.523438 118.199219 512 123.722656 512 L 323.722656 512 C 329.246094 512 333.722656 507.523438 333.722656 502 L 333.722656 459.726562 C 333.722656 449.746094 326.957031 441.320312 317.773438 438.785156 L 317.773438 436.683594 L 348.410156 405.878906 C 371.472656 382.683594 384.175781 351.894531 384.175781 319.1875 L 384.175781 249.5 C 384.175781 243.976562 379.699219 239.5 374.175781 239.5 C 368.65625 239.5 364.175781 243.976562 364.175781 249.5 L 364.175781 319.1875 C 364.175781 346.574219 353.539062 372.355469 334.226562 391.773438 L 300.683594 425.507812 C 298.820312 427.378906 297.773438 429.914062 297.773438 432.558594 L 297.773438 438 L 148.433594 438 L 148.433594 432.558594 C 148.433594 429.273438 146.820312 426.199219 144.121094 424.332031 L 126.746094 412.320312 C 97.121094 391.839844 73.589844 363.683594 58.6875 330.898438 L 22.445312 251.164062 C 18.117188 241.640625 21.238281 230.4375 29.871094 224.53125 C 39.144531 218.183594 51.507812 219.949219 58.636719 228.636719 L 105.234375 285.4375 C 109.964844 291.203125 117.558594 293.304688 124.582031 290.792969 C 131.605469 288.28125 136.140625 281.835938 136.140625 274.378906 L 136.140625 41.046875 C 136.140625 29.441406 145.582031 20 157.1875 20 C 168.792969 20 178.230469 29.441406 178.230469 41.046875 L 178.125 221.414062 C 178.125 244.042969 196.535156 262.457031 219.167969 262.457031 C 231.53125 262.457031 242.628906 256.957031 250.160156 248.28125 C 257.691406 256.957031 268.785156 262.457031 281.148438 262.457031 C 303.78125 262.457031 322.195312 244.042969 322.195312 221.414062 L 322.085938 95.042969 C 322.085938 83.4375 331.527344 73.996094 343.132812 73.996094 C 354.738281 73.996094 364.175781 83.4375 364.175781 95.042969 L 364.175781 175.503906 C 364.175781 181.027344 368.652344 185.503906 374.175781 185.503906 Z M 313.722656 492 L 133.722656 492 L 133.722656 459.726562 C 133.722656 458.773438 134.496094 458 135.449219 458 L 312 458 C 312.949219 458 313.722656 458.773438 313.722656 459.726562 Z M 219.167969 242.457031 C 207.5625 242.457031 198.121094 233.015625 198.121094 221.414062 L 198.121094 182.226562 C 198.121094 170.621094 207.5625 161.179688 219.167969 161.179688 C 230.285156 161.179688 239.394531 169.855469 240.140625 180.785156 C 240.121094 181.265625 240.101562 221.414062 240.101562 221.414062 C 240.101562 221.894531 240.121094 222.371094 240.140625 222.851562 C 239.394531 233.785156 230.285156 242.457031 219.167969 242.457031 Z M 302.191406 221.414062 C 302.191406 233.015625 292.753906 242.457031 281.148438 242.457031 C 270.027344 242.457031 260.921875 233.785156 260.175781 222.851562 C 260.191406 222.375 260.210938 221.894531 260.210938 221.414062 C 260.210938 221.414062 260.191406 181.265625 260.175781 180.785156 C 260.921875 169.855469 270.027344 161.179688 281.148438 161.179688 C 292.753906 161.179688 302.191406 170.621094 302.191406 182.226562 Z M 302.191406 221.414062 " style=" stroke:none;fill-rule:nonzero;fill:rgb(0%,0%,0%);fill-opacity:1;" />
<path d="M 158.859375 301.1875 C 153.335938 301.1875 148.859375 305.664062 148.859375 311.1875 C 148.859375 316.707031 153.335938 321.1875 158.859375 321.1875 C 175.4375 321.1875 189.878906 332.976562 193.199219 349.21875 L 193.691406 351.632812 C 194.660156 356.367188 198.828125 359.628906 203.476562 359.628906 C 204.140625 359.628906 204.816406 359.5625 205.492188 359.425781 C 210.902344 358.320312 214.390625 353.035156 213.285156 347.625 L 212.792969 345.214844 C 207.582031 319.703125 184.898438 301.1875 158.859375 301.1875 Z M 158.859375 301.1875 " style=" stroke:none;fill-rule:nonzero;fill:rgb(0%,0%,0%);fill-opacity:1;" />
<path d="M 374.175781 223 C 371.546875 223 368.964844 221.929688 367.105469 220.070312 C 365.246094 218.210938 364.175781 215.628906 364.175781 213 C 364.175781 210.371094 365.246094 207.789062 367.105469 205.929688 C 368.964844 204.070312 371.546875 203 374.175781 203 C 376.804688 203 379.386719 204.070312 381.246094 205.929688 C 383.105469 207.789062 384.175781 210.371094 384.175781 213 C 384.175781 215.628906 383.105469 218.210938 381.246094 220.070312 C 379.386719 221.929688 376.804688 223 374.175781 223 Z M 374.175781 223 " style=" stroke:none;fill-rule:nonzero;fill:rgb(0%,0%,0%);fill-opacity:1;" />
</g>
</svg>